<svg width="66" height="66" xmlns="http://www.w3.org/2000/svg">

 <g>
  <title>background</title>
  <rect fill="none" id="canvas_background" height="402" width="582" y="-1" x="-1"/>
 </g>
 <g>
  <title>Layer 1</title>
  <path fill="#000000" id="svg_3" d="m59.99,25.92l-15.05,0l0,1.47l14.32,0l0,35.94l-14.32,0l0,1.47l15.05,0c0.4,0 0.73,-0.33 0.73,-0.73l0,-37.41c0,-0.41 -0.33,-0.74 -0.73,-0.74z" class="st1"/>
  <path fill="#000000" id="svg_4" d="m21.14,63.33l-14.39,0l0,-35.94l14.39,0l0,-1.47l-15.13,0c-0.4,0 -0.73,0.33 -0.73,0.73l0,37.41c0,0.4 0.33,0.73 0.73,0.73l15.12,0l0,-1.46l0.01,0z" class="st1"/>
  <path fill="#000000" id="svg_6" d="m21.14,25.92l-17.09,0l0,-2.24l17.08,0l0,-1.47l-17.81,0c-0.4,0 -0.73,0.33 -0.73,0.73l0,3.7c0,0.4 0.33,0.73 0.73,0.73l17.82,0l0,-1.45z" class="st1"/>
  <path fill="#000000" id="svg_7" d="m62.68,22.22l-17.74,0l0,1.47l17.01,0l0,2.24l-17.01,0l0,1.47l17.74,0c0.4,0 0.73,-0.33 0.73,-0.73l0,-3.7c0,-0.42 -0.33,-0.75 -0.73,-0.75z" class="st1"/>
  <rect fill="#000000" id="svg_9" y="13.06" x="21.4" width="1.81" height="51" class="st0"/>
  <rect fill="#000000" id="svg_11" y="13.06" x="42.79" width="1.81" height="51" class="st0"/>
  <path fill="#000000" id="svg_13" d="m38.94,64.8l-11.89,0c-0.4,0 -0.73,-0.33 -0.73,-0.73l0,-18.25c0,-0.4 0.33,-0.73 0.73,-0.73l11.89,0c0.4,0 0.73,0.33 0.73,0.73l0,18.24c0.01,0.41 -0.32,0.74 -0.73,0.74zm-11.16,-1.47l10.43,0l0,-16.77l-10.43,0l0,16.77z" class="st2"/>
  <rect fill="#000000" id="svg_15" y="7.8" x="24.34" width="2.37" height="5.26" class="st0"/>
  <rect fill="#000000" id="svg_17" y="7.8" x="39.27" width="2.38" height="5.26" class="st0"/>
  <path fill="#000000" id="svg_19" d="m44.6,64.8l-23.2,0c-0.4,0 -0.73,-0.33 -0.73,-0.73l0,-51c0,-0.4 0.33,-0.73 0.73,-0.73l23.2,0c0.4,0 0.73,0.33 0.73,0.73l0,51c0,0.4 -0.33,0.73 -0.73,0.73zm-22.47,-1.47l21.73,0l0,-49.53l-21.73,0l0,49.53z" class="st2"/>
  <path fill="#000000" id="svg_21" d="m41.66,13.8l-17.32,0c-0.4,0 -0.73,-0.33 -0.73,-0.73l0,-5.27c0,-0.4 0.33,-0.73 0.73,-0.73l17.31,0c0.4,0 0.73,0.33 0.73,0.73l0,5.26c0.01,0.41 -0.32,0.74 -0.72,0.74zm-16.58,-1.47l15.85,0l0,-3.8l-15.85,0l0,3.8z" class="st2"/>
  <path fill="#000000" id="svg_23" d="m64.27,64.8l-62.54,0c-0.4,0 -0.73,-0.33 -0.73,-0.74c0,-0.4 0.33,-0.73 0.73,-0.73l62.53,0c0.4,0 0.73,0.33 0.73,0.73c0.01,0.41 -0.32,0.74 -0.72,0.74z" class="st2"/>
  <path fill="#000000" id="svg_25" d="m33.01,8.54c-0.4,0 -0.73,-0.33 -0.73,-0.73l0,-5.88c0,-0.4 0.33,-0.73 0.73,-0.73s0.73,0.33 0.73,0.73l0,5.87c0,0.41 -0.33,0.74 -0.73,0.74z" class="st2"/>
  <rect fill="#000000" id="svg_28" y="29.19" x="8.35" width="10.63" height="3.6" class="st0"/>
  <rect fill="#000000" id="svg_30" y="34.97" x="8.35" width="10.63" height="3.6" class="st0"/>
  <rect fill="#000000" id="svg_32" y="40.74" x="8.35" width="10.63" height="3.6" class="st0"/>
  <rect fill="#000000" id="svg_34" y="46.52" x="8.35" width="10.63" height="3.6" class="st0"/>
  <rect fill="#000000" id="svg_36" y="52.29" x="8.35" width="10.63" height="3.6" class="st0"/>
  <rect fill="#000000" id="svg_38" y="58.07" x="8.35" width="10.63" height="3.6" class="st0"/>
  <rect fill="#000000" id="svg_41" y="29.19" x="47.13" width="10.63" height="3.6" class="st0"/>
  <rect fill="#000000" id="svg_43" y="34.97" x="47.13" width="10.63" height="3.6" class="st0"/>
  <rect fill="#000000" id="svg_45" y="40.74" x="47.13" width="10.63" height="3.6" class="st0"/>
  <rect fill="#000000" id="svg_47" y="46.52" x="47.13" width="10.63" height="3.6" class="st0"/>
  <rect fill="#000000" id="svg_49" y="52.29" x="47.13" width="10.63" height="3.6" class="st0"/>
  <rect fill="#000000" id="svg_51" y="58.07" x="47.13" width="10.63" height="3.6" class="st0"/>
  <rect fill="#000000" id="svg_54" y="15.4" x="23.77" width="4.78" height="4.78" class="st3"/>
  <rect fill="#000000" id="svg_56" y="15.4" x="30.61" width="4.78" height="4.78" class="st3"/>
  <rect fill="#000000" id="svg_58" y="15.4" x="37.46" width="4.78" height="4.78" class="st3"/>
  <rect fill="#000000" id="svg_61" y="21.88" x="23.77" width="4.78" height="4.78" class="st3"/>
  <rect fill="#000000" id="svg_63" y="21.88" x="30.61" width="4.78" height="4.78" class="st3"/>
  <rect fill="#000000" id="svg_65" y="21.88" x="37.46" width="4.78" height="4.78" class="st3"/>
  <rect fill="#000000" id="svg_68" y="28.36" x="23.77" width="4.78" height="4.78" class="st3"/>
  <rect fill="#000000" id="svg_70" y="28.36" x="30.61" width="4.78" height="4.78" class="st3"/>
  <rect fill="#000000" id="svg_72" y="28.36" x="37.46" width="4.78" height="4.78" class="st3"/>
  <rect fill="#000000" id="svg_75" y="34.84" x="23.77" width="4.78" height="4.78" class="st3"/>
  <rect fill="#000000" id="svg_77" y="34.84" x="30.61" width="4.78" height="4.78" class="st3"/>
  <rect fill="#000000" id="svg_79" y="34.84" x="37.46" width="4.78" height="4.78" class="st3"/>
  <path fill="#000000" id="svg_81" d="m40.57,46.56l-15.14,0c-0.4,0 -0.73,-0.33 -0.73,-0.73s0.33,-0.73 0.73,-0.73l15.14,0c0.4,0 0.73,0.33 0.73,0.73s-0.33,0.73 -0.73,0.73z" class="st2"/>
  <path fill="#000000" id="svg_83" d="m36.29,55.63c-0.4,0 -0.73,-0.33 -0.73,-0.73l0,-0.61c0,-0.4 0.33,-0.73 0.73,-0.73s0.73,0.33 0.73,0.73l0,0.61c0.01,0.41 -0.32,0.73 -0.73,0.73z" class="st2"/>
 </g>
</svg>