<?xml version="1.0" encoding="utf-8"?>
<!-- Generator: Adobe Illustrator 23.0.0, SVG Export Plug-In . SVG Version: 6.00 Build 0)  -->
<svg version="1.1" id="Outlined" xmlns="http://www.w3.org/2000/svg" xmlns:xlink="http://www.w3.org/1999/xlink" x="0px" y="0px"
	 viewBox="0 0 32 32" style="enable-background:new 0 0 32 32;" xml:space="preserve">
<style type="text/css">
	.st0{fill:#0457A3;}
</style>
<title></title>
<g id="Fill">
	<path class="st0" d="M23.8,11l-1.4-5.7C22,3.9,20.8,3,19.4,3h-6.9C11.2,3,10,3.9,9.6,5.3L8.2,11H2.2l3.9,15.7C6.4,28.1,7.6,29,9,29
		h14c1.4,0,2.6-0.9,2.9-2.3L29.8,11H23.8z M15,21v6h-2.2l-1.1-6H15z M11.3,19l-1.1-6H15v6H11.3z M17,21h3.3l-1.1,6H17V21z M17,19v-6
		h4.8l-1.1,6H17z M23.8,13h3.5l-1.5,6h-3.1L23.8,13z M11.6,5.8c0.1-0.5,0.5-0.8,1-0.8h6.9c0.5,0,0.9,0.3,1,0.8l1.2,5.2H10.3
		L11.6,5.8z M8.2,13l1.1,6H6.2l-1.5-6H8.2z M8,26.2L6.7,21h3l1.1,6H9C8.5,27,8.1,26.7,8,26.2z M23.9,26.2C23.8,26.7,23.4,27,23,27
		h-1.8l1.1-6h3L23.9,26.2z"/>
</g>
</svg>
