<?xml version="1.0" encoding="utf-8"?>
<!-- Generator: Adobe Illustrator 23.0.0, SVG Export Plug-In . SVG Version: 6.00 Build 0)  -->
<svg version="1.1" id="Layer_1" xmlns="http://www.w3.org/2000/svg" xmlns:xlink="http://www.w3.org/1999/xlink" x="0px" y="0px"
	 viewBox="0 0 32 32" style="enable-background:new 0 0 32 32;" xml:space="preserve">
<style type="text/css">
	.st0{fill:none;stroke:#0457A3;stroke-width:2;stroke-linecap:round;stroke-linejoin:round;stroke-miterlimit:10;}
	.st1{fill:#434345;stroke:#0457A3;stroke-miterlimit:10;}
</style>
<g>
	<g>
		<polygon class="st0" points="31,8 31,26 22,26 22,17 10,17 10,26 1,26 1,8 		"/>
		<rect x="1" y="2" class="st0" width="30" height="6"/>
		<circle class="st1" cx="5" cy="5" r="1"/>
		<circle class="st1" cx="9" cy="5" r="1"/>
		<circle class="st1" cx="13" cy="5" r="1"/>
		<g>
			<circle class="st0" cx="16" cy="22.5" r="2"/>
			<line class="st0" x1="16" y1="24.5" x2="16" y2="26.5"/>
		</g>
		<rect x="10" y="17" class="st0" width="12" height="13"/>
		<path class="st0" d="M16,11L16,11c-2.2,0-4,1.8-4,4v2h8v-2C20,12.8,18.2,11,16,11z"/>
	</g>
</g>
</svg>
